<svg xmlns="http://www.w3.org/2000/svg" fill="none" viewBox="0 0 10 10"><path fill="#384564" fill-rule="evenodd" d="M3.526 2.55C3.91 1.629 4.642 0 5.009 0c.532 0 1.697 3.16 1.697 3.16s1.08.099 1.952.2c.463.054 1.29.136 1.341.406.011.058-.055.297-.176.463-.512.705-1.841 2.217-1.841 2.217s.073.722.138 1.512c.041.511.154 1.547.113 1.732-.044.204-.124.26-.207.291-.216.084-.719-.24-1.306-.537-.8-.405-1.698-.838-1.698-.838s-.593.328-1.296.647c-.75.341-1.51.903-1.828.706-.198-.124-.05-1.09.025-1.95.071-.81.133-1.55.133-1.55s-.44-.546-.953-1.13C.55 4.7-.126 4.02.02 3.77c.11-.19.614-.29 1.46-.4.899-.119 1.796-.202 1.796-.202s.098-.253.25-.617Z" clip-rule="evenodd"/></svg>