<svg xmlns="http://www.w3.org/2000/svg" fill="none" viewBox="0 0 21 20">
    <g opacity=".8">
        <mask id="a" fill="#fff">
            <path fill-rule="evenodd"
                  d="M7.32 5c.8-1.8 2.32-5 3.08-5 1.1 0 3.53 6.2 3.53 6.2s2.24.2 4.05.4c.96.1 2.68.26 2.79.79.02.11-.12.58-.37.9-1.06 1.39-3.82 4.35-3.82 4.35s.15 1.42.28 2.97c.1 1 .32 3.03.24 3.4-.1.4-.26.5-.43.57-.45.16-1.5-.47-2.71-1.05-1.66-.8-3.53-1.65-3.53-1.65s-1.23.64-2.69 1.27c-1.56.67-3.14 1.77-3.8 1.38-.4-.24-.1-2.13.05-3.82l.28-3.04s-.91-1.07-1.98-2.22C1.14 9.22-.26 7.88.04 7.4c.23-.37 1.28-.57 3.03-.78 1.87-.23 3.73-.4 3.73-.4s.2-.5.52-1.2Z"
                  clip-rule="evenodd"/>
        </mask>
        <path stroke="#3A4562" stroke-width="4"
              d="M7.32 5c.8-1.8 2.32-5 3.08-5 1.1 0 3.53 6.2 3.53 6.2s2.24.2 4.05.4c.96.1 2.68.26 2.79.79.02.11-.12.58-.37.9-1.06 1.39-3.82 4.35-3.82 4.35s.15 1.42.28 2.97c.1 1 .32 3.03.24 3.4-.1.4-.26.5-.43.57-.45.16-1.5-.47-2.71-1.05-1.66-.8-3.53-1.65-3.53-1.65s-1.23.64-2.69 1.27c-1.56.67-3.14 1.77-3.8 1.38-.4-.24-.1-2.13.05-3.82l.28-3.04s-.91-1.07-1.98-2.22C1.14 9.22-.26 7.88.04 7.4c.23-.37 1.28-.57 3.03-.78 1.87-.23 3.73-.4 3.73-.4s.2-.5.52-1.2Z"
              clip-rule="evenodd" mask="url(#a)"/>
    </g>
</svg>
